# xmcd CD database file
#
# Track frame offsets:
#	150
#	23660
#	38146
#	52224
#	77648
#	103647
#	118775
#	132609
#	148771
#	163137
#	175435
#	189163
#	206354
#	221711
#	250614
#	262682
#	277327
#	291823
#	307231
#	320741
#
# Disc length: 4493 seconds
#
# Revision: 0
# Processed by: cddbd v1.5.2PL0 Copyright (c) Steve Scherf et al.
# Submitted via: CDex 1.51
#
DISCID=38118b14
DTITLE=Oscar Peterson - Back Home Again CD 3
DYEAR=1900
DGENRE=Jazz
TTITLE0=Mack The Knife
TTITLE1=Ain'nt Necessarily So
TTITLE2=Sweet Lorraine
TTITLE3=Jumping At The Woodside
TTITLE4=One O' Clock Jump
TTITLE5=Body And Soul
TTITLE6=I Get A Kick Out Of You
TTITLE7=East Of The Sun (West Of The Moon)
TTITLE8=Honeydripper
TTITLE9=Humoresque
TTITLE10=Takin' A Chance Of Love
TTITLE11=Dark Eyes
TTITLE12=Blues For Basie
TTITLE13=Cotton Tail
TTITLE14=I Was Doin' All Right
TTITLE15=Strike Up The Band
TTITLE16=Robin's Nest
TTITLE17=Squeky's Blues
TTITLE18=Jim
TTITLE19=52 Street Theme
EXTD=
EXTT0=
EXTT1=
EXTT2=
EXTT3=
EXTT4=
EXTT5=
EXTT6=
EXTT7=
EXTT8=
EXTT9=
EXTT10=
EXTT11=
EXTT12=
EXTT13=
EXTT14=
EXTT15=
EXTT16=
EXTT17=
EXTT18=
EXTT19=
PLAYORDER=
